# xmcd CD database file
#
# Track frame offsets:
#	150
#	11606
#	24086
#	35610
#	49550
#	71241
#	84100
#	98548
#	111015
#	125213
#	136584
#	150420
#	163856
#	169251
#	183308
#	197141
#	209925
#	217303
#	225109
#	240040
#	251985
#	264017
#	275995
#
# Disc length: 3834 seconds
#
# Revision: 2
# Processed by: cddbd v1.5.2PL0 Copyright (c) Steve Scherf et al.
# Submitted via: CDex 1.77
#
DISCID=3a0ef817
DTITLE=Jim Reeves - The Complete Abbott Recordings, Plus [CD1)
DYEAR=2014
DGENRE=Country
TTITLE0=Jim Reeves - My Heart's Like A Welcome Mat
TTITLE1=Jim Reeves - I've Never Been So Blue
TTITLE2=Jim Reeves - Teardrops Of Regret
TTITLE3=Jim Reeves - Chicken Hearted
TTITLE4=Jim Reeves - I Could Cry (demo)
TTITLE5=Jim Reeves - Wagon Load Of Love (demo)
TTITLE6=Jim Reeves - You're The Sweetest Thing (demo)
TTITLE7=Jim Reeves - Wagon Load Of Love (demo)
TTITLE8=Jim Reeves - I Could Cry (demo)
TTITLE9=Jim Reeves - Wagon Load Of Love (master)
TTITLE10=Jim Reeves - What Were You Doing Last Night (master)
TTITLE11=Jim Reeves - I Could Cry (master)
TTITLE12=Jim Reeves - You're The Sweetest Thing (incomplete take)
TTITLE13=Jim Reeves - Each Beat Of My Heart (demo)
TTITLE14=Jim Reeves - Each Beat Of My Heart (alternate)
TTITLE15=Jim Reeves - Heart Breaking Baby (demo)
TTITLE16=Jim Reeves - You're The Sweetest Thing
TTITLE17=Jim Reeves - Heart Breaking Baby
TTITLE18=Jim Reeves - Whispering Willow (+ false start)
TTITLE19=Jim Reeves - If You Love Me Don't Leave Me
TTITLE20=Jim Reeves - Then I'll Stop Loving You
TTITLE21=Jim Reeves - Then I'll Stop Loving You (alternate)
TTITLE22=Jim Reeves - Let Me Love You Just A Little
EXTD=YEAR: 2014
EXTT0=
EXTT1=
EXTT2=
EXTT3=
EXTT4=
EXTT5=
EXTT6=
EXTT7=
EXTT8=
EXTT9=
EXTT10=
EXTT11=
EXTT12=
EXTT13=
EXTT14=
EXTT15=
EXTT16=
EXTT17=
EXTT18=
EXTT19=
EXTT20=
EXTT21=
EXTT22=
PLAYORDER=
